<svg xmlns="http://www.w3.org/2000/svg" width="51.514" height="39.016" viewBox="182.106 2.986 51.514 39.016"><path fill="#1E201D" d="M183.862 3.093l48.922 18.052.031.018c.117.046.226.108.324.185l.016.009c.016.009.046.026.052.05l.016.009.016.009.021.034.017.009c.007.023.021.032.037.041l.016.009.006.024c.032.018.038.042.06.076.028.058.072.123.102.181l.016.008-.008.014.007.025.017.009.006.024.007.024.006.024.022.033-.009.015.007.025.006.024.007.024.016.009-.01.016.007.025-.008.016.016.008-.009.016.007.025.006.024-.009.015.016.009-.008.014.006.024.007.025-.009.016.008.024.006.025-.009.016-.009.015.015.009-.008.016.006.024-.009.015-.009.016.016.009-.009.016-.009.016.006.024-.009.016-.009.016.007.025-.009.016-.009.016.015.008-.017.031-.009.016-.009.016.006.024-.018.031-.019.031.005.02-.019.031-.009.015-.009.016-.097.17-.043.077-.033.021-.026.047-.01.016-.023.007-.009.015-.01.016-.009.016-.017-.009-.009.015c-.008.016-.033.022-.051.052l-.009.016c-.099.066-.197.133-.329.181l-.024.007-48.796 18.41a1.249 1.249 0 0 1-1.019-.011 1.256 1.256 0 0 1-.632-1.652l8.163-17.763-8.289-17.696a1.275 1.275 0 0 1 .612-1.678 1.256 1.256 0 0 1 1.029-.007zm49.414 18.375c.007.023.021.032.037.041m-7.891 2.08l-32.72.138-6.799 14.775 39.519-14.913zm-.003-2.502l-39.636-14.62 6.91 14.735 32.726-.115z"/></svg>