<svg xmlns="http://www.w3.org/2000/svg" width="54" height="42.828" viewBox="173 5.586 54 42.828"><path d="M226.068 5.586h-52.137a.93.93 0 0 0-.931.931v40.965a.93.93 0 0 0 .931.932h52.137a.931.931 0 0 0 .932-.932V6.517a.93.93 0 0 0-.932-.931zm-.93 40.966h-50.275V7.448h50.275v39.104zm-37.242-20.355a5.19 5.19 0 0 0 5.185-5.184c0-2.86-2.326-5.186-5.185-5.186s-5.185 2.326-5.185 5.185a5.19 5.19 0 0 0 5.185 5.185zm0-8.508a3.327 3.327 0 0 1 3.323 3.323 3.327 3.327 0 0 1-3.323 3.323 3.327 3.327 0 0 1-3.323-3.322 3.33 3.33 0 0 1 3.323-3.324zm-8.379 25.139a.927.927 0 0 0 .615-.232l15.188-13.371 9.591 9.59a.93.93 0 1 0 1.316-1.316l-4.476-4.475 8.548-9.361 10.484 9.611a.93.93 0 1 0 1.258-1.373l-11.174-10.242a.955.955 0 0 0-.67-.244.932.932 0 0 0-.646.303l-9.118 9.988-4.416-4.417a.933.933 0 0 0-1.274-.041L178.9 41.198a.93.93 0 0 0 .617 1.63z"/></svg>