<?xml version="1.0" encoding="utf-8"?>
<!-- Generator: Adobe Illustrator 16.0.0, SVG Export Plug-In . SVG Version: 6.00 Build 0)  -->
<!DOCTYPE svg PUBLIC "-//W3C//DTD SVG 1.1//EN" "http://www.w3.org/Graphics/SVG/1.1/DTD/svg11.dtd">
<svg version="1.1" id="Capa_1" xmlns="http://www.w3.org/2000/svg" xmlns:xlink="http://www.w3.org/1999/xlink" x="0px" y="0px"
	 width="51.514px" height="39.016px" viewBox="182.106 2.986 51.514 39.016" enable-background="new 182.106 2.986 51.514 39.016"
	 xml:space="preserve">
<path fill="#1E201D" d="M183.862,3.093l48.922,18.052l0,0l0.031,0.018c0.117,0.046,0.226,0.108,0.324,0.185l0,0l0.016,0.009
	c0.016,0.009,0.046,0.026,0.052,0.05l0,0l0.016,0.009l0.016,0.009l0,0l0.021,0.034l0,0l0.017,0.009l0,0l0,0
	c0.007,0.023,0.021,0.032,0.037,0.041l0.016,0.009l0.006,0.024l0,0c0.032,0.018,0.038,0.042,0.06,0.076l0,0
	c0.028,0.058,0.072,0.123,0.102,0.181l0.016,0.008l-0.008,0.014l0.007,0.025l0,0l0.017,0.009l0.006,0.024l0,0l0.007,0.024l0,0
	l0.006,0.024l0.022,0.033l-0.009,0.015l0.007,0.025l0.006,0.024l0,0l0,0l0.007,0.024l0.016,0.009l-0.01,0.016l0.007,0.025
	l-0.008,0.016l0.016,0.008l-0.009,0.016l0.007,0.025l0,0l0.006,0.024l-0.009,0.015l0.016,0.009l-0.008,0.014l0.006,0.024l0,0
	l0.007,0.025l-0.009,0.016l0.008,0.024l0,0l0.006,0.025l-0.009,0.016l-0.009,0.015l0.015,0.009l-0.008,0.016l0.006,0.024
	l-0.009,0.015l-0.009,0.016l0.016,0.009l-0.009,0.016l-0.009,0.016l0.006,0.024l0,0l-0.009,0.016l-0.009,0.016l0.007,0.025
	l-0.009,0.016l-0.009,0.016l0,0l0.015,0.008l-0.017,0.031l-0.009,0.016l-0.009,0.016l0.006,0.024l-0.018,0.031l0,0l-0.019,0.031l0,0
	l0.005,0.02l0,0l0,0l-0.019,0.031l-0.009,0.015l-0.009,0.016c-0.026,0.047-0.062,0.108-0.097,0.17l0,0
	c-0.018,0.031-0.034,0.062-0.043,0.077l0,0l-0.033,0.021l0,0c-0.009,0.016-0.018,0.031-0.026,0.047l0,0l-0.01,0.016l-0.023,0.007
	l0,0l-0.009,0.015l-0.01,0.016l-0.009,0.016l-0.017-0.009l-0.009,0.015c-0.008,0.016-0.033,0.022-0.051,0.052l0,0l-0.009,0.016
	c-0.099,0.066-0.197,0.133-0.329,0.181l-0.024,0.007l0,0l-48.796,18.41c-0.303,0.133-0.677,0.146-1.019-0.011
	c-0.637-0.284-0.906-1.031-0.632-1.652l8.163-17.763l-8.289-17.696c-0.291-0.638-0.01-1.378,0.612-1.678
	C183.169,2.943,183.55,2.956,183.862,3.093L183.862,3.093z M233.276,21.468c0.007,0.023,0.021,0.032,0.037,0.041 M225.422,23.589
	l-32.72,0.138l-6.799,14.775L225.422,23.589z M225.419,21.087l-39.636-14.62l6.91,14.735L225.419,21.087z"/>
</svg>
