<?xml version="1.0" encoding="utf-8"?>
<!-- Generator: Adobe Illustrator 16.0.0, SVG Export Plug-In . SVG Version: 6.00 Build 0)  -->
<!DOCTYPE svg PUBLIC "-//W3C//DTD SVG 1.1//EN" "http://www.w3.org/Graphics/SVG/1.1/DTD/svg11.dtd">
<svg version="1.1" id="Capa_1" xmlns="http://www.w3.org/2000/svg" xmlns:xlink="http://www.w3.org/1999/xlink" x="0px" y="0px"
	 width="54px" height="42.828px" viewBox="173 5.586 54 42.828" enable-background="new 173 5.586 54 42.828" xml:space="preserve">
<path fill="#000000" d="M226.068,5.586h-52.137c-0.514,0-0.931,0.416-0.931,0.931v40.965c0,0.516,0.417,0.932,0.931,0.932h52.137
	c0.515,0,0.932-0.416,0.932-0.932V6.517C227,6.002,226.583,5.586,226.068,5.586z M225.138,46.552h-50.275V7.448h50.275V46.552z
	 M187.896,26.197c2.859,0,5.185-2.326,5.185-5.184c0-2.86-2.326-5.186-5.185-5.186s-5.185,2.326-5.185,5.185
	C182.711,23.872,185.037,26.197,187.896,26.197z M187.896,17.689c1.833,0,3.323,1.492,3.323,3.323c0,1.831-1.49,3.323-3.323,3.323
	c-1.832,0-3.323-1.491-3.323-3.322C184.574,19.182,186.064,17.689,187.896,17.689z M179.517,42.828c0.218,0,0.438-0.076,0.615-0.232
	l15.188-13.371l9.591,9.59c0.364,0.364,0.952,0.364,1.316,0c0.364-0.363,0.364-0.952,0-1.316l-4.476-4.475l8.548-9.361l10.484,9.611
	c0.38,0.348,0.969,0.321,1.315-0.058c0.348-0.379,0.322-0.969-0.057-1.315l-11.174-10.242c-0.182-0.167-0.425-0.25-0.67-0.244
	c-0.246,0.011-0.479,0.12-0.646,0.303l-9.118,9.988l-4.416-4.417c-0.348-0.347-0.905-0.365-1.274-0.041l-15.843,13.95
	c-0.386,0.34-0.424,0.928-0.084,1.314C179.002,42.722,179.259,42.828,179.517,42.828z"/>
</svg>
